<svg xmlns="http://www.w3.org/2000/svg" viewBox="0 0 512 512" fill="none">
    <!-- Background -->
    <rect width="512" height="512" rx="110" fill="#091810" />

    <!-- Back chat card (left, behind) -->
    <rect x="70" y="96" width="215" height="168" rx="16" fill="#132c1c" />
    <!-- Text line bars on back card -->
    <rect x="98" y="136" width="148" height="12" rx="6" fill="#1d4228" />
    <rect x="98" y="162" width="110" height="12" rx="6" fill="#1d4228" />
    <rect x="98" y="188" width="130" height="12" rx="6" fill="#1d4228" />

    <!-- Front chat card (right, in front) -->
    <rect x="148" y="148" width="228" height="182" rx="16" fill="#1b4a2b" />
    <!-- Text line bars on front card -->
    <rect x="178" y="196" width="162" height="14" rx="7" fill="#2e7a48" />
    <rect x="178" y="224" width="120" height="14" rx="7" fill="#2e7a48" />
    <rect x="178" y="252" width="142" height="14" rx="7" fill="#2e7a48" />

    <!-- Naira badge (bottom-left) -->
    <circle cx="148" cy="388" r="56" fill="#f59e0b" />
    <text
        x="148" y="406"
        text-anchor="middle"
        font-family="system-ui, -apple-system, Arial, sans-serif"
        font-weight="700"
        font-size="50"
        fill="#091810"
    >₦</text>

    <!-- Arrow badge (bottom-right) -->
    <circle cx="368" cy="380" r="56" fill="#22c55e" />
    <!-- Horizontal shaft -->
    <line x1="338" y1="380" x2="390" y2="380" stroke="#091810" stroke-width="14"
        stroke-linecap="round" />
    <!-- Arrowhead -->
    <path d="M370 358 L392 380 L370 402" stroke="#091810" stroke-width="14" stroke-linecap="round"
        stroke-linejoin="round" fill="none" />
</svg>